<svg id="Camada_1" data-name="Camada 1" xmlns="http://www.w3.org/2000/svg" viewBox="0 0 694.78 799.8"><defs><style>.cls-1{fill:#9f7aea;}.cls-2{fill:#a993aa;}.cls-3{fill:#ccc0cd;}.cls-4{fill:#fefefe;}</style></defs><path class="cls-1" d="M356.35,14.33q25.68,31.52,51.38,63,75.07,91.53,150.2,183c1.4,1.71,4.32,3.5,3.23,5.63s-4.26,1.13-6.55,1.14q-122.67.3-245.34.55-80.46.21-160.9.51h-4c-3.58,0-3.61-1.65-1.72-4q8.23-10,16.57-20l188-225q2.05-2.44,4.13-4.87Z" transform="translate(-13.46 -14.33)"/><path class="cls-1" d="M371.34,814.13c-1.63-7.37-1.17-14.92-1.6-22.38-2-34.58-3.73-69.18-5.49-103.78-.36-7-.24-6.88,6.92-7.86q56.11-7.74,112.21-15.6,55.86-7.72,111.74-15.37,37.83-5.22,75.64-10.5c2.29-.31,4.6-.53,7.49-.86-1.39,2.26-3.35,2.82-4.94,3.74Q527.66,725.93,382,810.29c-2,1.13-4.26,1.83-5.63,3.84Z" transform="translate(-13.46 -14.33)"/><path class="cls-1" d="M708.24,576.19c-4.38-7.25-6.68-15.39-9.76-23.18Q645.56,419,592.86,285c-2.49-6.31-2.34-6.79,3.53-9.48q48.29-22.08,96.58-44.12c7.22-3.29,7.45-3.25,7.67,4.89q1.44,54.21,2.66,108.42l4.11,170.38c1,6.68-.52,13.46.83,20.12Z" transform="translate(-13.46 -14.33)"/><path class="cls-1" d="M14.29,548.14c3.3-103,6.6-206,9.92-309.68,3.91,1.76,7.21,3.23,10.49,4.72,24.8,11.28,49.55,22.66,74.43,33.73,4,1.78,4.6,3.6,3.26,7.53q-48.61,142.38-97,284.82a34.57,34.57,0,0,1-1.89,3.93v-10C14.8,558.24,13.27,553.12,14.29,548.14Z" transform="translate(-13.46 -14.33)"/><path class="cls-2" d="M708.24,535.2c-1.72-6.65-1-13.4-.83-20.12a.79.79,0,0,1,.83.13Z" transform="translate(-13.46 -14.33)"/><path class="cls-3" d="M14.29,548.14c.08,5,.73,10.11-.83,15.06v-15A1.31,1.31,0,0,1,14.29,548.14Z" transform="translate(-13.46 -14.33)"/><path class="cls-1" d="M351.35,282.1q105,0,209.91,0c6,0,6.31.58,3.37,5.76Q462.85,467,361.06,646.1c-5.29,9.3-5.35,9.3-10.89-.05Q244.33,467.52,138.5,289c-.42-.72-.77-1.48-1.24-2.16-1.95-2.86-.9-3.66,2.2-3.65,12.82,0,25.65-.07,38.48-.07H351.35Z" transform="translate(-13.46 -14.33)"/><path class="cls-1" d="M579.66,291.65q62.79,159.64,125,317.93c3.09,7.84,2.34,9.14-6.09,10.3q-59.82,8.25-119.67,16.39Q515.4,645,451.87,653.9q-39.56,5.48-79.12,10.85c-1.25.17-2.86.88-3.62-.63s.63-2.8,1.33-4q25.73-45.35,51.51-90.64,77-135.54,154-271.09C577.11,296.36,578.19,294.33,579.66,291.65Z" transform="translate(-13.46 -14.33)"/><path class="cls-1" d="M124.6,294.69c25.76,43.49,51,86.11,76.26,128.73q68.67,115.86,137.3,231.75c1.47,2.48,4.68,5.29,2.92,8-1.92,2.92-5.83,1-8.8.54q-53.83-7.7-107.66-15.54L117.46,632.61q-45.93-6.68-91.86-13.32c-9.39-1.35-10.4-2.79-7.25-12.09q21.89-64.66,43.89-129.28,30.1-88.71,60.22-177.42C123,298.81,123.69,297.14,124.6,294.69Z" transform="translate(-13.46 -14.33)"/><path class="cls-1" d="M44.7,637.26l65.31,9.4,107.67,15.51,107.17,15.45c5.93.85,11.83,1.88,17.78,2.49,4.45.46,6.41,2.56,6.63,7,1.29,26.28,2.72,52.55,4.09,78.83.72,14,1.46,27.93,2.09,41.9.08,1.71,1.15,4-.72,5s-3.39-.83-4.92-1.7q-108-61.28-216-122.58-42.28-24-84.57-48C47.68,639.74,45.8,639.27,44.7,637.26Z" transform="translate(-13.46 -14.33)"/><path class="cls-1" d="M395.49,37.59l109.39,65.79Q594,157,683.09,210.58c2.19,1.32,5.82,2.17,5.65,4.93-.14,2.4-3.72,2.85-5.93,3.86-31.54,14.5-63.14,28.86-94.61,43.52-4.78,2.22-7.47,1.59-10.86-2.54Q488.27,151.58,398.91,43.07c-1.35-1.64-2.68-3.31-4-5Z" transform="translate(-13.46 -14.33)"/><path class="cls-1" d="M302.24,47.42c0,3.3-1.59,4.22-2.61,5.44q-86.7,103.66-173.39,207.35c-3.24,3.88-6.29,5.32-11.12,3.11-27-12.4-54.13-24.65-81.2-37a20.17,20.17,0,0,1-1.75-1.11Z" transform="translate(-13.46 -14.33)"/><path class="cls-4" d="M432.54,187.39a60.65,60.65,0,0,1-1.87,16.8c-4.71,17-17.25,25.81-34.9,24.67s-28.63-10.58-34.18-26.69a75.35,75.35,0,0,1-2.94-39.38c2.62-13.51,9.5-24,23.81-27,15.17-3.23,28.91-.22,39,12.6C430.45,159.76,432.3,173.39,432.54,187.39Z" transform="translate(-13.46 -14.33)"/><path class="cls-4" d="M298.78,210.88c11,0,21.91.21,32.82-.11,4.45-.13,5.56.8,4.87,5.44C334.72,228,335,228,323,228c-16.66,0-33.33-.1-50,.08-3.67,0-4.67-.93-3.78-4.48a66,66,0,0,0,1.29-8.88,8.93,8.93,0,0,1,3.91-6.53c11.38-8.69,22.63-17.56,33.91-26.39,3.82-3,7.46-6.19,9.69-10.61,5.61-11.13-.49-20.51-12.94-19.74-6.55.4-12.64,2.72-18.55,5.47-2.24,1-4.45,2.12-7.37,3.52.89-6.4,1.68-12.24,2.53-18.06.19-1.29,1.13-1.85,2.4-2.2,13.42-3.64,27-6.43,40.88-3.56,16.75,3.44,23.54,17,16.84,33-2.72,6.49-7.35,11.51-12.65,15.86-9.26,7.61-18.75,14.93-28.12,22.42C300.23,208.57,298.94,208.91,298.78,210.88Z" transform="translate(-13.46 -14.33)"/><path class="cls-4" d="M488.5,728c-5.6-6.2-10.91-11.94-16-17.85-1.59-1.85-2.69-1.76-4.48-.37-3.81,3-8,5.41-11.63,8.6-3.07,2.72-4.13.36-5.88-1.33-2.53-2.42-.24-3.26,1.26-4.43a266.34,266.34,0,0,1,30-19.75c2.37-1.38,3.57-1.11,5.31.9,5.89,6.79,12.12,13.29,18,20.11,1.93,2.25,3.33,2.6,5.76.91,3-2.09,6.25-3.78,9.4-5.64,5.72-3.39,5.72-3.38,9.93,2.67l-69.86,41.41q-14.16,8.4-28.3,16.81a5,5,0,0,1-7.35-2.68c-.57-1.75,1-1.88,1.81-2.39,4.95-3,9.95-6,15.2-9.12-5.59-6.14-11-12-16.27-18-1.41-1.6-2.45-1.7-4.11-.41-3.95,3-8.24,5.69-12,8.94-3.25,2.8-4.12-.24-5.79-1.68-2.44-2.11-.32-3,1.09-4.05a284.92,284.92,0,0,1,30.44-19.93c2.24-1.31,3.38-.83,4.94.93,6.07,6.86,12.28,13.58,18.43,20.36,1.22,1.34,2.07,2.86,4.46,1.38C471.08,738.25,479.54,733.32,488.5,728Z" transform="translate(-13.46 -14.33)"/><path class="cls-4" d="M675.39,326c-1.82,1.14-3.71,1.67-3.9,2.55-1,4.89-5,4-8.25,4.72-8.28,1.86-15,9.36-15.21,17.05-.08,2.59-.52,5.53,2.3,7.16,2.56,1.48,4.82,0,7-1.15,1.88-1,3.68-2.09,5.84-3.32a35.32,35.32,0,0,0,.5,4.82c1.18,4.82-.24,8-4.87,10.38A14.64,14.64,0,0,0,650.47,382c.08,5.46,3.11,7.18,7.85,4.53s8.11-6.78,11.69-10.88c2.87,8.51,1.79,12.87-4.5,18.42-4.26,3.75-8.78,7.15-14.1,9.27-6.87,2.74-10.95.44-12.28-6.72-1.66-9,.61-17.06,6.17-24.32-6.86-1.92-8.49-4-9.18-11.2-1.71-17.8,6.61-30.29,21.58-38.31,11.9-6.37,23-14,34.49-20.91l4.23-2.55c1.12,3.92,1,7.7.73,11.36-.19,3.07-3.53,3.73-5.7,4.92-3.5,1.92-4.71,4.24-4.41,8.32,1,13.55,1.51,27.12,2.29,42.3l9.53-10.9c5,11.56-2.06,17.18-8.85,22.71-3.31,2.69-7.15,4.74-11.43,7.53C677.51,365.59,676.48,346.27,675.39,326Z" transform="translate(-13.46 -14.33)"/><path class="cls-4" d="M48.25,345.48a91,91,0,0,1-.77,29.89,33.22,33.22,0,0,1-3.9,11.23c-3.46,5.79-7.65,6.6-13.35,3.21-7-4.13-8.59-10-6.16-17.73,1.51,1.68,3,3.51,4.65,5.13,4.54,4.42,7.83,3.69,9.92-2.23.66-1.87,1-3.85,1.58-6.21-7.09,1.39-10.59-2.76-13-8.17-4.28-9.53-4.32-19.43-1.27-29.22,2.5-8,8.72-9.31,14.86-3.51,3.13,2.95,4.72,6.76,6.11,10.75,1.5-1.25.69-3.24,2-5,6.7,4,13.43,8.1,20.19,12.12,2.36,1.4,1.25,3.54,1.23,5.39a57,57,0,0,1-.66,6.07c-2.88.11-4.36-2.67-7.31-2.69-1,12.38-1.9,24.78-3,37.17-.24,2.82,1.2,3.34,3.46,3.64,1.5.2,3.73,0,3.67,2.4-.07,3,.61,6.17-.93,8.79-.78,1.34-2.79,0-4.19-.24-8.51-1.33-11.08-4.86-10.33-13.11,1.22-13.41,2-26.87,3.42-40.26C54.92,348.26,52.13,347.29,48.25,345.48Z" transform="translate(-13.46 -14.33)"/><path class="cls-4" d="M282.71,420.49c0-8.15-.15-16.31.07-24.46.08-3.09-.85-3.9-3.91-3.9-9.08,0-9.08-.13-9.08-9,0-7.87,0-8.12,7.79-7.79,4.11.18,5.34-.9,5.24-5.13-.27-11.53-.06-11.54,11.66-11.54,10.46,0,10.8,0,10.33,10.33-.25,5.4,1.55,6.56,6.58,6.36,9.63-.4,19.3,0,28.95-.2,3.66-.09,4.77.67,5.14,4.74,1,10.69-2.07,19.47-8.51,28.05-9.26,12.35-17.48,25.49-26,38.4a6.14,6.14,0,0,1-6.05,3.19c-5.82-.19-11.66-.35-17.46,0-4.21.29-5-1.39-4.84-5.11C282.88,436.47,282.71,428.48,282.71,420.49Z" transform="translate(-13.46 -14.33)"/><path class="cls-4" d="M422.91,429.4a5.25,5.25,0,0,1,.36,1.21c0,4.65,1.45,10.18-.56,13.71s-8.15,2.36-12.41,3.57c-9,2.54-18.2,1.23-27.32,1.62-3.65.15-3-2.23-3-4.29q0-29.24,0-58.48C380,375,380,375,368.48,375c-9.12,0-9.12,0-9.12-9.08a22.69,22.69,0,0,0,0-3.5c-.49-3.22,1-3.85,4-3.83q27.73.16,55.48,0c3,0,4,.75,4.06,3.9.22,12.51.34,12.51-11.9,12.51-8.66,0-8.66,0-8.66,8.48,0,15.32.1,30.65-.08,46,0,3.53.94,4.21,4.24,3.38C411.88,431.48,417.43,430.53,422.91,429.4Z" transform="translate(-13.46 -14.33)"/><path class="cls-4" d="M589.61,565.87a6.24,6.24,0,0,1-.57,1.76c-3.88,5.81-7.74,11.63-11.74,17.36-1.73,2.47-2.92-.11-3.95-.89q-20.11-15.21-40.09-30.59c-5.79-4.43-6-4.57-9.74,1.59-2,3.33-3.75,4.12-6.55,1.11a19.61,19.61,0,0,0-2.35-1.86c-2.59-2.07-6.41-3.67-7.43-6.35s2.75-5.18,4.4-7.75c1.15-1.8,1-2.87-.67-4.1-3.25-2.33-6.33-4.89-9.6-7.17-1.9-1.32-2.22-2.38-.76-4.36,3-4,5.78-8.14,8.46-12.35,1.18-1.86,2.09-2.09,3.79-.66,2.93,2.47,6.14,4.6,9,7.13,2.2,2,3.34,1.59,4.91-.81,5.57-8.49,11.44-16.77,17-25.25,1.52-2.31,2.78-3.07,4.83-.83a1.9,1.9,0,0,0,.39.31c10.15,6,16.41,14.67,20.5,25.78,5.51,14.95,12.35,29.4,18.61,44.07C588.61,563.23,589.06,564.48,589.61,565.87Z" transform="translate(-13.46 -14.33)"/><path class="cls-4" d="M150.87,545.89c-12.72-7.4-21.13-17.53-24.69-31.26-3-11.71,1-21.12,11.61-26.93,2.64-1.45,3-2.35,1.06-4.6-2.25-2.66-4.11-5.66-6.31-8.37-1.4-1.72-1.19-2.7.67-3.88,4.37-2.74,8.68-5.57,12.89-8.55,1.86-1.33,2.79-.79,4,.85,3.26,4.62,6.51,9.27,10.07,13.66,2.33,2.87,2.95,4.95-1.05,6.62a11.87,11.87,0,0,0-2.2,1.81c15.42,5.23,25.06,16.13,31.9,29.69,7.3,14.5,4.66,28.28-7,39.6-20.62,20.07-46.93,19.61-66.6-1.34a95.84,95.84,0,0,1-17.6-27.07c-1-2.37-1-3.85,1.53-5.13,3.22-1.65,6.11-5.73,9.19-5.1,1.9.38,2.76,5.78,4.13,8.91,3.36,7.73,7.64,14.81,14.7,19.76C134.47,549.69,142.17,550.21,150.87,545.89Z" transform="translate(-13.46 -14.33)"/><path class="cls-4" d="M276.74,736.83l4.45,3.85c-3,3.14-6.91,4.91-10.24,7.49-1.25,1-2.14.15-3.06-.52-1.87-1.38-3.75-2.77-5.59-4.19s-4.93-2.74.78-5c-10.94-1.29-18.49-6-24.94-12.91-2.59-2.77-2.58-4.57,1-6.26a43.12,43.12,0,0,0,4.61-2.93c9.48,13.28,19.13,16.42,29.28,9.28-5.44-1.17-10.16-3.26-13.86-7.22-5.24-5.62-5-11.93.71-17,11.39-10.21,31.61-7.93,40.42,4.56,3.48,4.93,3.22,10.7-1.08,16.11C293.52,729.22,285.88,733.51,276.74,736.83Z" transform="translate(-13.46 -14.33)"/><path class="cls-4" d="M558.72,184.69l18,20.79c-8.19,1.78-8.82,1.6-13.83-4.19-9.54-11-19.05-22.08-29.07-33.68,5.66-.55,10.17-.56,14.78,2.25,10.34,6.31,21,12.12,31.56,18a25.41,25.41,0,0,0,8.75,3.46c2.09.3,4.51,1.08,5.9-1.24,1.23-2-.27-3.84-1.37-5.44-3.26-4.71-7.62-8.31-12.16-11.71-2.22-1.66-4.46-3.29-7.22-5.32,6.7-1.2,12-.79,16.59,4.33,5.11,5.67,11.1,10.54,15.73,16.68A43.5,43.5,0,0,1,610,194c1.56,2.89,3.68,6,1.43,9.27-2.11,3.09-5.64,2.42-8.74,2.08-6.24-.69-11.68-3.64-17.07-6.59-8.85-4.84-17.64-9.8-26.45-14.71Z" transform="translate(-13.46 -14.33)"/><path class="cls-4" d="M135.18,181.51c9-9,18.52-15.26,30.09-17.81,2.59-.57,5.59-1.31,7.55.94s.72,5.15-.52,7.49c-9.32,17.46-22.83,30.1-42.09,35.87-6.69,2-8.52,1.1-10-4.31-2.85,2.32-5.53,4.65-8.36,6.78a44.14,44.14,0,0,1-19,8.47c-4.76.84-7.26-1.66-5.29-5.91,8.41-18.21,21.4-31.52,41.49-36.56C132.51,175.63,135.16,176.57,135.18,181.51Z" transform="translate(-13.46 -14.33)"/><path class="cls-1" d="M380.75,174.53a61.71,61.71,0,0,1,1.3-14.47c1.26-5.16,4.09-8.66,9.67-9.32,5.33-.64,9.93,1.91,12.56,7.14,3.53,7,4,14.72,4.66,22.31.64,7.12.91,14.28-.48,21.4S403.7,212.53,397.91,213c-5.59.47-10.29-2.77-12.83-9.13C381.56,195.08,381.37,185.72,380.75,174.53Z" transform="translate(-13.46 -14.33)"/><path class="cls-1" d="M40.72,347.13c-.2,3,0,6-1.13,8.82-.5,1.31-1.12,2.59-2.59,2.68s-2.4-.92-3.22-2c-2.18-3-2.29-16.22,0-19.31,2.15-2.94,4-1.37,5.45.71C41.08,340.75,40.74,344,40.72,347.13Z" transform="translate(-13.46 -14.33)"/><path class="cls-1" d="M305,428.42c0-11.39,0-22.78,0-34.17,0-2.4,1.68-2,3.11-2,7.16,0,14.32,0,22.46,0L306,428.69Z" transform="translate(-13.46 -14.33)"/><path class="cls-1" d="M552.53,512.16l18.54,43.65a39.61,39.61,0,0,1-3.64-2.09c-8.44-6.46-16.8-13-25.29-19.39-2.2-1.65-3.08-2.73-1.06-5.38C545,523.83,548.36,518.35,552.53,512.16Z" transform="translate(-13.46 -14.33)"/><path class="cls-1" d="M158.9,534.2c-6.56-.05-14.19-8.09-14.2-15,0-6.23,8.74-13.8,16-13.83,6.68,0,14.52,8.25,14.47,15.3C175.12,526.86,166.2,534.26,158.9,534.2Z" transform="translate(-13.46 -14.33)"/><path class="cls-1" d="M276.51,719.19a7.56,7.56,0,0,1-6.9-4.72c-1.37-3.51,1.75-5.34,4.12-7.06,5.13-3.71,10-4.18,13.77-1.47,3.13,2.23,3.83,4.8,1,7.86A18.53,18.53,0,0,1,276.51,719.19Z" transform="translate(-13.46 -14.33)"/><path class="cls-1" d="M137.16,195.4c-4.32.28-5.49-.88-3.83-3.71,4.89-8.35,12.57-12.56,21.8-14.19,2.71-.48,3.81,1,2.37,3.57C152.75,189.55,145,193.56,137.16,195.4Z" transform="translate(-13.46 -14.33)"/><path class="cls-1" d="M105.33,204.46c-2.67.19-2.63-1.2-1.88-3.12,1.91-4.83,12.31-12,17.52-12,2.32,0,3,.94,2.28,3.09C121.59,197.39,110.81,204.67,105.33,204.46Z" transform="translate(-13.46 -14.33)"/></svg>