<?xml version="1.0" encoding="utf-8"?>
<!-- Generator: Adobe Illustrator 25.3.0, SVG Export Plug-In . SVG Version: 6.00 Build 0)  -->
<svg version="1.1" id="Camada_1" xmlns="http://www.w3.org/2000/svg" xmlns:xlink="http://www.w3.org/1999/xlink" x="0px" y="0px"
	 viewBox="0 0 771 332" style="enable-background:new 0 0 771 332;" xml:space="preserve">
<style type="text/css">
	.st0{fill:#9F7AEA;}
	.st1{fill:#EEEEF2;}
</style>
<path class="st0" d="M432.76,67.58c0,6,0.1,12-0.04,17.99c-0.07,2.85,0.44,4.63,3.83,3.7c0.16-0.04,0.33-0.04,0.5-0.02
	c1.91,0.16,5.13-0.62,5.17,1.52c0.07,2.86-3.25,2.08-5.17,1.96c-3.72-0.24-4.4,1.52-4.35,4.78c0.16,9.83,0.02,19.66,0.07,29.49
	c0.02,4.93,1.33,5.71,5.69,3.82c1.85-0.8,3.99-3.39,5.74-1.24c1.94,2.38-0.66,4.63-2.08,6.48c-6.03,7.86-13.19,9.88-20.37,5.99
	c-4.5-2.44-6.81-6.11-6.78-11.31c0.05-10.99-0.01-21.99,0.04-32.99c0.01-2.78,0.36-5.61-3.94-4.87c-0.83,0.14-1.74-0.14-1.9-1.16
	c-0.22-1.36,0.87-1.74,1.84-1.81c3.85-0.29,4.08-2.73,4.04-5.86c-0.14-11.66,0.07-23.32-0.12-34.98c-0.07-3.96,1.29-5.14,5.22-5.13
	c12.61,0.05,12.62-0.09,12.62,12.65C432.76,60.25,432.76,63.91,432.76,67.58z"/>
<path class="st0" d="M311.01,110.17c0-6.82,0.1-13.64-0.05-20.45c-0.06-2.8,0.92-3.67,3.72-3.77C326,85.54,326,85.45,326,96.7
	c0,9.48-0.01,18.95,0,28.43c0.01,6.09,3.04,7.8,8.49,4.86c1.07-0.58,1.87-2.31,3.41-1.27c1.66,1.12,0.71,2.63,0.31,4.05
	c-1.79,6.34-8.36,10.09-16.19,9.19c-7.05-0.81-10.93-5.11-11-12.35C310.96,123.14,311.01,116.65,311.01,110.17z"/>
<path class="st1" d="M275,237.92c0,5.82-0.02,11.64,0.02,17.46c0.01,1.1-0.44,2.49,0.75,3.19c1.28,0.75,2.19-0.25,2.92-1.17
	c0.66-0.83,1.36-1.6,2.46-1.01c1.05,0.56,0.79,1.72,0.83,2.68c0.18,5.2-5.04,10.32-11.06,10.85c-5.67,0.5-11.67-3.72-11.78-9.1
	c-0.29-13.79-0.1-27.59-0.1-41.39c0-0.5-0.11-1.16,0.16-1.46c3.64-4.03,8.37-1.33,12.57-1.87c3.08-0.4,3.25,2.05,3.24,4.37
	C274.98,226.29,275,232.11,275,237.92z"/>
<path class="st1" d="M254.92,187.81c0.07-6.3,5.72-11.82,11.88-11.63c6.25,0.2,11.42,5.82,11.24,12.23
	c-0.17,6.08-5.61,11.43-11.6,11.39C260.24,199.77,254.85,194.15,254.92,187.81z"/>
<path class="st0" d="M330.06,59.26c-0.05,6.28-4.74,10.92-11.07,10.95c-6.54,0.03-11.26-4.81-11.11-11.37
	c0.14-6.13,5.16-10.92,11.32-10.81C325.38,48.15,330.11,53.04,330.06,59.26z"/>
<path class="st1" d="M483.77,179.87c5.84,0.07,10.07,4.31,10.07,10.09c0,5.78-4.77,10.31-10.68,10.11
	c-5.23-0.17-9.89-4.81-9.99-9.96C473.06,184.59,478.02,179.8,483.77,179.87z"/>
<path class="st1" d="M416.35,194.31c0.04,1.28-0.91,1.8-1.66,2.38c-5.76,4.42-11.55,8.81-17.34,13.21c-0.92,0.7-2,1.67-2.97,0.37
	c-0.85-1.14-0.02-2.26,0.92-2.98c5.92-4.48,11.87-8.94,17.85-13.34C414.21,193.17,415.53,192.51,416.35,194.31z"/>
<path class="st0" d="M307.19,129.74c-1.73-1.52-2.97,0.17-4.31,1.09c-1.82,1.25-3.88,2.2-6.05,1.28c-2.63-1.12-1.79-3.68-1.8-5.73
	c-0.06-10.83-0.16-21.66,0.05-32.49c0.07-3.62-0.86-5.04-4.72-4.92c-7.99,0.26-15.99,0-23.99,0.05
	c-14.14,0.09-25.81,11.91-26.43,25.98c-0.39,8.79,3.97,15.16,9.03,21.7c-3.77-1.5-7.18,0.13-10.62,0.38
	c-3.39,0.24-4.68-0.77-4.62-4.4c0.21-11.99,0.22-24-0.01-35.99c-0.07-3.75,1.05-5.22,4.79-4.73c1.01,0.13,2.72,0.53,2.91-0.98
	c0.24-1.88-1.57-2.03-2.82-1.84c-4.78,0.71-4.85-2.09-4.85-5.67c0.03-20.82-0.11-41.65-0.19-62.47c-0.01-3.22,1.21-5.55,4.69-5.94
	c3.92-0.44,2.96-2.17,1.23-4.18c-1.11-1.29-2.5-2.16-4.11-2.72c-9.71-3.37-19.25,3.32-19.3,13.74c-0.09,20.83-0.08,41.66,0.03,62.49
	c0.02,3.17-0.38,5.18-4.23,4.71c-1.31-0.16-3.59-0.56-3.44,1.63c0.15,2.13,2.38,1.15,3.7,1.24c2.03,0.15,3.97-0.21,3.95,2.95
	c-0.11,13.16-0.06,26.33-0.03,39.49c0,1.89-0.45,3.43-2.6,3.49c-3.15,0.09-6.45,0.5-9.42-0.27c-2.1-0.55-0.39-3.68-1.44-5.39
	c-0.17-0.28-0.28-0.6-0.39-0.92c-0.35-0.99-0.88-1.85-2.04-1.9c-1.2-0.05-1.78,0.79-1.99,1.84c-0.37,1.85-0.74,4.03-3.19,3.56
	c-2.57-0.49-2.94-2.86-2.94-5.12c-0.01-36.83-0.03-73.65,0.03-110.48c0.01-4.63,2.73-6.68,7.1-5.67c1.46,0.34,3.25,1.29,4.15-0.12
	c0.96-1.52-0.32-3.24-1.36-4.49c-0.93-1.11-2.15-2.11-3.44-2.78c-9.59-5.05-21.29,1.91-21.43,12.75c-0.07,5.5,0.17,10.99,0.17,16.49
	c-0.04,31.66-0.13,63.32-0.16,94.98c-0.01,11.42,11.67,19.89,20.22,14c4.83-3.32,9.41-3.08,14.42-3.47
	c3.67-0.29,4.43,1.17,4.39,4.54c-0.16,14.33-0.2,28.66,0.02,42.99c0.06,3.83-1.15,4.74-4.81,4.7c-16.16-0.19-32.33-0.17-48.49-0.01
	c-3.56,0.04-4.96-0.68-4.89-4.62c0.24-13.99,0.25-27.99,0-41.99c-0.07-3.98,1.38-4.89,4.92-4.56c2.64,0.25,5.33,0.06,7.99,0
	c0.79-0.02,1.78,0,1.91-1.11c0.15-1.33-0.78-1.71-1.86-1.74c-2.5-0.05-5.04-0.31-7.49,0.02c-4.55,0.63-5.48-1.25-5.46-5.55
	c0.17-38.16,0.09-76.32,0.12-114.48c0-1.42-0.44-2.94,0.51-4.39c0.49,0.12,0.97,0.17,1.41,0.35c1.18,0.48,2.65,1.74,3.5,0.19
	c0.83-1.5-0.91-2.29-2.01-2.93c-3.19-1.84-6.57-3.08-10.33-3.3c-12.28-0.74-20.98,5.46-27.84,14.68
	c-8.14,10.95-12.76,23.66-17.05,36.45c-0.86,2.58-1.51,3.53-4.71,3.14c-25.66-3.13-46.18,8.64-55.51,31.98
	c-8.54,21.37-1.04,41.82,21.33,49.52c5.47,1.88,11.13,2.42,17.41,2.27c-3.58,9.38-7.96,17.31-13.61,24.61
	c-10.61,13.7-24.06,19.16-41.25,15.37c-15.43-3.4-24.22-18.65-17.94-31.62c2.07-4.28,5.64-6.33,9.97-6.16
	c4.81,0.19,7.73,3.44,9,8.06c0.35,1.27,0.53,2.59,0.88,3.87c0.22,0.8,0.6,1.67,1.65,1.48c0.93-0.17,1.22-0.92,1.29-1.85
	c0.4-5.99-4.39-12.56-10.41-14.2c-5.84-1.59-12.09,1.35-14.99,7.05c-5.46,10.73-1.75,24.21,8.58,31.33
	c12.19,8.4,35.31,9.42,48.97-4.07c8.58-8.47,14.89-18.3,19.38-29.37c1.13-2.78,2.25-4.54,5.87-4.8c5.5-0.39,10.57-2.77,15.16-5.93
	c1.07-0.74,2.59-1.56,1.54-3.1c-0.91-1.32-2.13-0.2-3.05,0.39c-3.93,2.58-8.17,4.29-12.74,5.48c-3.72,0.97-3.62-0.51-2.76-3.11
	c2.81-8.51,4.87-17.22,6.77-25.96c3.06-14.08,6.08-28.17,8.95-42.29c0.77-3.8,2.17-4.94,6.1-3.51c5.03,1.84,10.1,3.57,14.29,6.92
	c7.76,6.21,13.55,13.25,12.82,24.36c-0.72,10.95-0.39,21.99-0.05,32.98c0.15,4.67-0.87,6.44-5.92,6.25c-2.44-0.09-7.2-2.96-7.4,1
	c-0.15,2.96,5.09,1.75,7.8,1.57c4.47-0.29,5.53,1.2,5.51,5.58c-0.17,44.82-0.1,89.65-0.1,134.47c0,16.99-10.59,29.07-27.46,30.99
	c-10.13,1.15-23.38-9.16-21.2-21.2c2.55,2.47,4.05,7.29,9.03,4.36c3.79-2.23,4.76-7.57,2.52-12.53c-2.42-5.36-8.27-9.08-13.03-8.29
	c-5.12,0.86-11.34,7.91-11.81,13.52c-0.63,7.54,1.17,14.56,5.12,20.94c13.31,21.49,45.36,23.14,63.49,3.76
	c8.87-9.48,11.97-21.02,12.15-33.39c0.35-24.16,0.16-48.32,0.15-72.48c0-2.7-0.09-4.7,3.79-4.65c16.83,0.2,33.66,0.13,50.49,0.04
	c2.71-0.01,3.83,0.67,3.81,3.61c-0.11,17-0.1,33.99-0.01,50.99c0.01,2.56-0.75,3.65-3.41,3.48c-2.65-0.16-5.33,0-7.99,0.01
	c-1.2,0-1.94,0.7-2.03,1.77c-0.12,1.6,1.26,1.19,2.11,1.19c14.83,0.01,29.66,0,44.49-0.05c1.06,0,2.64,0.3,2.5-1.52
	c-0.12-1.65-1.61-1.39-2.71-1.41c-3.83-0.04-7.67-0.15-11.5,0.02c-2.8,0.13-3.78-0.87-3.77-3.71c0.07-37.83,0.06-75.65,0.01-113.48
	c0-2.62,0.55-4.11,3.57-3.88c7.64,0.59,15.33-2.05,23.05,1.62c3.39,1.61,8.3,1.31,12.19-0.62c5.07-2.51,9.11-2.53,14.42,0.78
	c8.27,5.15,19.04,0.72,20.77-7.28C308.11,132.87,308.6,130.98,307.19,129.74z M102.11,75.68c-4.19,20.93-8.37,41.85-14.09,62.45
	c-1.39,5.01-3.85,6.21-8.79,6c-16.12-0.69-31.63-12.82-33.15-26.6c-1.54-13.92,3.06-25.86,12.08-36.25
	c9.47-10.89,21.74-15.34,35.88-15.32C104.19,66,104.05,65.98,102.11,75.68z M138.77,84.61c-7.28-11.19-17.07-16.66-28.49-19.54
	c-1.38-0.35-2.14-0.72-1.59-2.29c5.83-16.62,10.85-33.69,25.31-45.51c1.26-1.03,2.45-2.28,4.77-2.4
	C138.77,37.77,138.77,60.48,138.77,84.61z M274.23,131.11c-8.19,0.88-15.06-3.99-16.1-12.05c-0.44-3.43-0.42-7.02,0.03-10.45
	c1.03-7.68,9.55-12.76,16.98-10.58c2.08,0.61,1.84,2.07,1.85,3.52c0.04,4.33,0.01,8.65,0.01,12.98c0,4.49-0.06,8.99,0.02,13.48
	C277.07,130.05,276.39,130.88,274.23,131.11z"/>
<path class="st1" d="M766.01,156.78c-1.17-13.39-4.91-25.92-15.06-34.86c-19.83-17.47-43.89-21.86-69.44-19.39
	c-16.19,1.57-30.59,8.51-44.59,16.4c-7.53,4.25-15.18,8.31-22.98,12.03c-7.88,3.75-12.78,1.39-14.61-6.27
	c-0.71-2.97-0.52-4.46,3.2-4.88c7.86-0.87,13.19-5.74,17.19-12.29c3.72-6.08-0.64-17.98-7.94-19.66c-7.46-1.72-16.16,0.37-21.1,6.53
	c-6.74,8.41-7.9,18.4-6.45,28.39c2.56,17.67,18.98,24.43,32.46,13.84c7.99-6.28,16.33-12,25.21-16.97
	c22.34-12.5,45.82-18.61,71.32-12.55c11.66,2.77,23.01,6.51,32.65,14.22c20.02,16.02,21.56,50.57,10.93,69.76
	c-8.63,15.59-22.69,25.57-37.92,33.73c-32.91,17.63-69.14,22.36-105.55,26.16c-1.8,0.19-3.09-0.23-3.91-2.17
	c-1.69-4.03-4.09-7.6-8.54-10.22c4.78,0.3,8.21-0.78,9.97-4.83c1.81-4.19,0.57-7.69-2.42-10.92c-5.8-6.25-13.02-6.62-20.71-5.31
	c-5.23,0.89-10.58,2.27-12.36,7.86c-1.97,6.19,1.13,11.31,5.4,15.7c2.55,2.63,5.25,5.13,7.7,7.85c0.9,1,3.39,2.16,1.37,3.76
	c-1.28,1.02-3.13,0.1-4.03-1.76c-0.5-1.03-1.28-1.95-2.07-2.79c-4.03-4.3-8.89-3.75-11.05,1.64c-1.23,3.06-2.74,3.55-5.6,2.84
	c-2.07-0.51-4.31-0.75-6.43-0.56c-3.74,0.34-4.91-1.02-4.81-4.78c0.25-8.99,0.05-17.99,0.09-26.99c0.01-2.56-0.11-4.54-3.64-4.44
	c-7.94,0.22-15.96-0.55-23.82,0.28c-15.5,1.63-25.22,10.24-26.5,25.4c-0.08,0.96,0.27,2.13-0.7,2.74c-3.01,1.86-9.39-1.86-9.45-5.49
	c-0.05-3.17,0.01-6.33-0.02-9.5c-0.13-15.08,2.14-13.14-14.39-13.31c-2.64-0.03-3.51,1.07-3.46,3.59c0.11,5-0.25,10.02,0.12,14.99
	c0.31,4.16-1.48,4.22-4.55,3.29c-4.6-1.4-9.18-3.07-13.89-3.91c-5.48-0.98-7.7-3.71-6.67-9.14c0.35-1.88-1.11-4.61,2.47-4.94
	c3.27-0.3,5.51,0.85,6.42,4.14c0.53,1.91,0.92,3.89,1.64,5.73c1.12,2.86,3.03,5.15,6.42,4.04c3.19-1.05,3.73-3.93,3.35-6.95
	c-0.71-5.62-6.47-10.67-12.55-10.77c-5.99-0.1-12.06-0.44-17.97,0.3c-4.4,0.55-10.11-1.29-12.96,1.86c-4.11,4.55-6.98,2-10.54,0.45
	c-2.13-0.92-4.29-1.82-6.49-2.57c-16.44-5.65-33.26-7.74-50.54-5.13c-3.55,0.54-5.58-0.21-5.32-4.61c0.38-6.31,0.1-12.66,0.1-18.99
	c0-9.87,0-9.76-9.87-9.39c-3.05,0.12-4.07,1.21-4.02,4.19c0.14,7.83,0.05,15.66,0.05,23.49c0,8.03-0.13,7.68-7.51,10.49
	c-5.42,2.06-10.31,2.49-15.69,0.01c-5.1-2.35-10.45-1.18-15.62,0.27c-8.68,2.43-11.83,9.8-7.43,17.81c1.24,2.25,1.14,3.82-0.21,5.9
	c-2.44,3.77-4.58,7.73-6.86,11.61c-0.69,1.17-1.64,2.69-0.33,3.56c1.58,1.05,2.19-0.84,2.84-1.88c2.28-3.68,4.49-7.4,6.72-11.11
	c0.95-1.58,1.81-2.76,3.76-0.9c3.97,3.79,8.22,7.28,12.13,11.12c2.68,2.63,4.3,5.91,4.05,9.85c-0.28,4.48-3.59,4.71-6.83,4.63
	c-3.91-0.1-2.75-2.73-2.24-5.01c0.25-1.13,0.18-2.32,0.38-3.46c0.78-4.37-0.4-7.86-4.38-10.16c-2.97-1.72-5.92-1.35-8.31,0.82
	c-3.42,3.1-3.27,7.07-1.68,11.04c2.56,6.41,10.41,10.58,18.82,10.8c10.4,0.28,21.22-12.09,15.23-23.52
	c-3.08-5.88-8.01-9.64-12.73-13.82c-1.21-1.07-4.41-2.01-3.09-3.63c2.06-2.52,3.07,1.14,4.47,2.06c3.18,2.09,6.43,2.9,9.85,1.07
	c3.24-1.73,4.44-5.11,3.23-8.12c-1.57-3.9-0.08-4.94,3.18-5.6c1.29-0.26,2.55-0.76,3.79-1.22c3.31-1.21,4.62-0.49,4.54,3.42
	c-0.28,12.82-0.1,25.66-0.3,38.48c-0.05,3.26,0.85,5.93,3.13,8.07c6.76,6.33,19.16,3.25,22.37-5.51c0.64-1.74,1.28-3.73-0.53-5.01
	c-1.73-1.21-2.63,0.77-3.66,1.67c-1.65,1.45-3.49,2.15-5.51,1.32c-2.13-0.87-1.75-2.99-1.75-4.79c-0.01-10.66-0.08-21.33,0.04-31.99
	c0.03-3.11-1.27-6.75,0.75-9.2c1.64-1.99,5.04-0.67,7.65-1.02c11.6-1.57,23.12-1.06,34.46,2.12c1.05,2.21,1.16,2.24,4.33,1.26
	c0.5,0,1.02-0.1,1.49,0.02c10.39,2.64,19.6,8.24,29.59,11.88c2.16,0.79,1.65,2.66,1.66,4.24c0.04,8.16,0.02,16.33,0.02,24.49
	c0,11.27,0.01,11.18,10.74,11.97c3.93,0.29,5.39-1.12,5.3-5.08c-0.19-8.66,0-17.33-0.09-25.99c-0.02-2.52,0.34-3.65,3.32-2.72
	c6.17,1.94,12.44,3.57,18.69,5.26c2.28,0.62,3.17,1.91,3.09,4.32c-0.16,4.83-0.06,9.66-0.05,14.49c0.01,5.46,2.32,8.64,7.5,10.37
	c6.09,2.04,15.68-1.26,19.07-6.67c1.06-1.68,2.32-3.72,0.81-5.53c-1.82-2.19-3.09,0.59-4.66,0.99c-1.55,0.39-3.91,3.44-4.63-0.13
	c-0.75-3.67-0.16-7.62-0.11-11.45c0.01-0.73,0.52-1.09,1.26-1.25c3.86-0.84,8.34,1.77,9.34,5.77c4.11,16.46,20.22,24.63,35.73,17.14
	c3.43-1.66,6.02-2.02,9.29,0.72c4.4,3.69,9.35,2.25,14.04-0.14c4.39-2.24,6.87-5.68,6.77-10.7c-0.02-1.24-1.04-2.72,1.16-3.06
	c1.68-0.26,2.33,0.79,2.86,2.14c3.38,8.56,10.49,12.19,18.88,13.53c10.71,1.7,20.34-5.91,19.64-14.71c-0.2-2.53,1.19-2.88,3.34-3.1
	c7.91-0.83,15.78-1.99,23.68-2.87c25.55-2.86,50.31-8.75,73.87-19.21c16.36-7.26,30.97-17.16,42.32-31.04
	C764.53,188.09,767.42,172.98,766.01,156.78z M599,114.11c1-5.67,0.81-11.64,3.94-16.79c1.91-3.14,3.97-6.53,8.28-5.85
	c3.39,0.53,6.81,6.2,6.78,10.14c-0.04,6.63-9.94,15.74-16.61,15.4C599.32,116.9,598.7,115.79,599,114.11z M307.54,227.19
	c-2-0.12-2.41-1.96-2.52-3.68c-0.12-2.07,0.97-4.19,2.78-4c2.8,0.29,0.06,3.68,1.84,4.57C309.91,226.13,308.88,227.27,307.54,227.19
	z M431.42,225.59c-1.11-0.34-3.07-0.19-2.82-2.02c0.17-1.26,1.39-2.35,2.84-2.34c1.65,0.01,1.46,1.43,1.54,2.56
	C432.87,224.76,432.89,226.04,431.42,225.59z M539.96,257.71c-2.22,0.59-4.51,0.93-6.42,1.3c-4.46-0.08-7.76-1.73-10.06-5.1
	c-1.22-1.79-1.06-3.24,1.61-2.92c5.06,0.62,10.1,1.37,15.15,2.05c1.24,0.17,1.66,0.91,1.62,2.04
	C541.83,256.39,541.14,257.4,539.96,257.71z M537.68,249.78c-3.88-0.78-7.81-1.51-11.75-1.7c-3.41-0.16-4.12-1.74-4.15-4.72
	c-0.09-10.47,6.63-17.68,16.18-17.43c2.97,0.08,4.27,0.99,4.06,4.06c-0.18,2.65-0.04,5.32-0.04,7.97s-0.15,5.33,0.04,7.97
	C542.25,249.27,541.07,250.46,537.68,249.78z M563.61,256.76c-0.31,2.18-2.48,2.97-4.56,3.14c-2.04,0.17-3.2-0.91-3-2.98
	c0.29-2.98,2.74-1.53,4.21-1.98C561.67,255.18,563.92,254.51,563.61,256.76z M593.56,266.97c-4.06-0.19-6.04-2.26-5.6-6.28
	c0.01-2.39-0.61-5.01,3.2-4.75c2.94,0.2,5.74,4.33,5.74,8.56C596.9,266.99,595.29,267.05,593.56,266.97z M588.37,227.8
	c-0.98-2.06-0.61-4.21,1.18-5.91c1.4-1.33,3.1-1.21,4.66-0.69c2.32,0.78,1.82,2.93,1.72,4.66c-0.2,3.31,0.3,6.48,2.44,10.35
	C593.37,234.07,590.19,231.62,588.37,227.8z"/>
<path class="st1" d="M574.28,127.28c-0.99-0.41-1.89-0.06-2.78,0.57c-1.44,1.03-1.54,3.41-4.27,3.76c-0.12-0.97-0.27-1.61-0.27-2.26
	c-0.01-33.47-0.02-66.94,0.02-100.41c0-1.46,0.35-2.96,0.76-4.37c0.52-1.8,1.67-2.91,3.73-2.22c5.03,1.67,3.84-2.13,2.89-3.96
	c-1.51-2.92-3.87-5.27-7.77-5.4c-8.29-0.29-15.56,6.9-15.59,15.92c-0.06,18.15-0.09,36.3,0.05,54.45c0.03,3.56-0.33,5.29-4.7,4.78
	c-8.02-0.94-15.66,0.58-21.66,6.55c-9.45,9.42-12.71,24.84-4.96,39.07c5.85,10.75,16.73,14.9,27.84,9.9
	c3.87-1.74,7.27-4.64,11.07-0.1c0.33,0.39,1.25,0.34,1.9,0.41c7.08,0.76,15.48-7.17,15.13-14.24
	C575.61,128.66,575.32,127.71,574.28,127.28z M550.97,114.5c0,3.32,0.03,6.63-0.01,9.95c-0.06,5.16-2.23,7.64-7.83,8.3
	c-4.17,0.49-7.51-1.12-8.98-5.36c-2.26-6.52-2.89-13.32-1.98-20.08c1-7.48,8.2-11.41,15.35-8.95c2.26,0.78,3.6,2.05,3.49,4.7
	C550.85,106.87,550.97,110.69,550.97,114.5z"/>
<path class="st0" d="M405.84,128.3c-1.96-0.91-2.35,1.28-3.23,2.31c-1.5,1.76-3.23,3.04-5.63,2.22c-2.47-0.84-2.13-3.13-2.15-5.07
	c-0.06-5.99-0.02-11.98-0.02-17.97c-0.02,0-0.03,0-0.05,0c0-6.32-0.06-12.65,0.03-18.97c0.05-3.34-1.33-4.88-4.75-4.82
	c-5.82,0.1-11.65,0-17.47,0.02c-20.27,0.08-34.17,15.38-31.47,35.29c2.24,16.48,22.24,30.39,38.09,19.57
	c2.24-1.53,3.3-1.09,4.84,0.74c3.58,4.25,8.51,4.82,13.16,2.91c5.03-2.06,8.98-5.82,9.71-11.73
	C407.08,131.29,407.74,129.18,405.84,128.3z M376.86,129.87c-6.6,1.85-11.24,0.11-13.99-4.6c-3.5-6-4.17-12.29-0.77-18.5
	c2.73-4.99,7.45-6.76,12.96-6.98c3.02-0.12,4.16,0.98,3.98,4.04c-0.22,3.82-0.05,7.65-0.05,11.48c0,2.16,0.37,4.41-0.09,6.47
	C378.29,124.52,381.35,128.61,376.86,129.87z"/>
<path class="st0" d="M497.93,126.41c-1.95-2.47-4.19-1.31-6.23-0.07c-1.98,1.21-3.73,2.78-5.75,3.91c-3.97,2.21-8.09,4.23-12.62,1.4
	c-4.27-2.66-5.7-6.62-5.27-11.54c0.18-2.09,1.03-2.92,3.03-3.11c5.72-0.53,10.87-3.05,16-5.28c3.62-1.58,6.84-4.19,7.93-8.47
	c1.79-7.02,0.05-13.24-4.84-18.35c-5.09-5.33-11.57-7.16-18.68-5.17c-13.83,3.88-23.53,18.58-23.52,35.14
	c-0.71,16.34,8.66,25.17,18.62,28.79c9.96,3.63,22.59-1.16,30.32-10.99C498.43,130.75,499.78,128.76,497.93,126.41z M466.97,108.59
	c0.46-4.43,1.28-8.81,3.81-12.67c2.79-4.25,6.61-5.89,9.44-4.12c3.49,2.18,5.03,7.58,2.92,11.51c-2.75,5.1-7.41,8.03-12.82,9.54
	C466.61,113.88,466.82,111.06,466.97,108.59z"/>
<path class="st1" d="M400.22,217.09c-1.45-0.42-2.89-0.84-4.33-1.26c-8.01-0.07-15.66,1.65-20.06,8.78
	c-6.64,10.76-7.95,22.41-2.33,34.17c4.31,9,11.79,13.21,21.65,13.17c8.78-0.03,14.06-5.21,17.45-12.65
	C418.58,246.2,417.56,225.25,400.22,217.09z M405.77,262.78c-3.58,3.18-8.08,3.25-11.62,0.02c-7.49-6.82-10.81-23.22-6.35-32.42
	c2.16-4.46,5.85-7.55,10.97-7.27c5.87,0.32,9.41,4.5,11.92,9.35c1.81,3.49,1.43,7.43,1.25,11.36
	C412.59,250.95,411.58,257.62,405.77,262.78z"/>
</svg>
